<svg width="58" height="50" viewBox="0 0 58 50" fill="none" xmlns="http://www.w3.org/2000/svg">
<g clip-path="url(#clip0_18_5)">
<path d="M1.75022 21.5112C3.23288 15.3688 6.66667 9.91407 11.5048 6.01593C16.343 2.11771 22.3075 0 28.4483 0C34.5892 0 40.5536 2.11771 45.3918 6.01593C50.2301 9.91407 53.6637 15.3688 55.1464 21.5112H52.7349C48.6668 21.4494 44.682 22.7027 41.3402 25.0947C41.1473 25.2387 40.9459 25.3702 40.7373 25.4883H40.456C40.2474 25.3702 40.046 25.2387 39.8531 25.0947C36.4817 22.758 32.511 21.5099 28.4483 21.5099C24.3856 21.5099 20.415 22.758 17.0436 25.0947C16.8507 25.2387 16.6493 25.3702 16.4407 25.4883H16.1594C15.9508 25.3702 15.7494 25.2387 15.5565 25.0947C12.2146 22.7027 8.22992 21.4494 4.1618 21.5112H1.75022ZM48.394 34.499C49.632 33.5054 51.1663 32.9854 52.7349 33.0283H55.9704V26.379H52.7349C49.972 26.3446 47.2725 27.231 45.0379 28.9062C43.7805 29.8617 42.2594 30.3773 40.6971 30.3773C39.1348 30.3773 37.6137 29.8617 36.3563 28.9062C34.0651 27.2623 31.3404 26.3809 28.5488 26.3809C25.7572 26.3809 23.0325 27.2623 20.7414 28.9062C19.4839 29.8617 17.9628 30.3773 16.4005 30.3773C14.8382 30.3773 13.3171 29.8617 12.0597 28.9062C9.79764 27.2095 7.0593 26.3221 4.26228 26.379H0.92627V33.0283H4.1618C5.73034 32.9854 7.26468 33.5054 8.50262 34.499C10.7896 36.1442 13.5113 37.0262 16.3 37.0262C19.0888 37.0262 21.8105 36.1442 24.0975 34.499C25.337 33.5085 26.8702 32.989 28.4383 33.0283C30.0074 32.9819 31.5428 33.5023 32.7791 34.499C35.0703 36.1431 37.795 37.0243 40.5866 37.0243C43.3782 37.0243 46.1029 36.1431 48.394 34.499ZM48.394 46.389C49.632 45.3954 51.1663 44.8755 52.7349 44.9183H55.9704V38.269H52.7349C49.972 38.2347 47.2725 39.121 45.0379 40.7962C43.7805 41.7517 42.2594 42.2673 40.6971 42.2673C39.1348 42.2673 37.6137 41.7517 36.3563 40.7962C34.0651 39.1523 31.3404 38.2711 28.5488 38.2711C25.7572 38.2711 23.0325 39.1523 20.7414 40.7962C19.4839 41.7517 17.9628 42.2673 16.4005 42.2673C14.8382 42.2673 13.3171 41.7517 12.0597 40.7962C9.79764 39.0997 7.0593 38.2121 4.26228 38.269H0.92627V44.9183H4.1618C5.73034 44.8755 7.26468 45.3954 8.50262 46.389C10.7896 48.0342 13.5113 48.9162 16.3 48.9162C19.0888 48.9162 21.8105 48.0342 24.0975 46.389C25.337 45.3985 26.8702 44.879 28.4383 44.9183C30.0074 44.8719 31.5428 45.3923 32.7791 46.389C35.0703 48.0331 37.795 48.9143 40.5866 48.9143C43.3782 48.9143 46.1029 48.0331 48.394 46.389Z" fill="url(#paint0_linear_18_5)"/>
</g>
<defs>
<linearGradient id="paint0_linear_18_5" x1="28.4483" y1="0" x2="28.4483" y2="48.9162" gradientUnits="userSpaceOnUse">
<stop stop-color="#CC6363"/>
<stop offset="1" stop-color="#666666"/>
</linearGradient>
<clipPath id="clip0_18_5">
<rect width="56.27" height="49.7143" fill="white" transform="translate(0.92627)"/>
</clipPath>
</defs>
</svg>
